<svg width="147" height="120" viewBox="0 0 147 120" fill="none" xmlns="http://www.w3.org/2000/svg">
<g clip-path="url(#clip0_118_212)">
<path d="M138.095 66.4673L145.459 55.2755C147.475 52.1999 146.621 48.0649 143.545 46.0316L137.941 42.358C133.789 39.6241 129.176 37.6933 124.323 36.6339L124.648 23.8189C124.733 20.3674 122.17 17.4114 118.736 17.0184C118.513 17.0013 117.3 16.8646 115.557 16.8646C113.148 16.8646 109.97 17.1209 106.877 18.1119C103.358 12.7809 98.5391 8.26997 92.9346 5.12601C87.0568 1.77702 80.2392 -0.0170898 73.2507 -0.0170898C66.6211 -0.0170898 60.1452 1.60615 54.4895 4.66467C48.4237 7.87697 43.3661 12.5587 39.6753 18.1119C36.5997 17.1209 33.4216 16.8646 31.0124 16.8646C29.2695 16.8646 28.0564 16.9842 27.8342 17.0184C24.3998 17.4114 21.8368 20.3503 21.9222 23.8189L22.2469 36.6168C17.3943 37.6762 12.7638 39.607 8.61169 42.3409L3.00725 46.0145C-0.0683634 48.0308 -0.922699 52.1657 1.09353 55.2584L8.45791 66.4502C9.14138 67.4754 10.0811 68.2956 11.1747 68.8082C6.21955 75.5745 3.29772 83.8958 3.29772 92.8492V106.091C3.29772 109.782 6.28789 112.755 9.96154 112.755H23.3575C24.9295 112.755 27.4412 112.055 28.8936 109.816C29.0474 110.124 29.2183 110.414 29.3891 110.722L32.6698 116.566C33.5412 118.103 34.9765 119.248 36.6852 119.727C37.2832 119.897 37.8812 119.983 38.4793 119.983C39.607 119.983 40.7347 119.692 41.7428 119.129L53.4301 112.567C56.6424 110.756 57.7873 106.707 55.9761 103.494L53.3105 98.7441C58.6074 103.58 65.6301 106.433 73.2849 106.433C80.9398 106.433 87.7915 103.648 93.0542 98.915L90.4741 103.494C90.2008 103.99 89.9786 104.519 89.8419 105.066C89.5344 106.228 88.9022 110.261 93.5327 112.858L94.8483 113.592L98.8637 115.848L104.707 119.129C105.733 119.71 106.86 119.983 107.971 119.983C110.312 119.983 112.567 118.753 113.797 116.583L117.625 109.765C118.821 111.576 120.871 112.772 123.195 112.772H136.591C138.898 112.772 143.255 111.252 143.255 105.528V99.4789V92.8492C143.255 83.9128 140.333 75.5745 135.378 68.8082C136.454 68.2956 137.394 67.5096 138.095 66.4502V66.4673Z" fill="#AC6DFF"/>
<path d="M105.22 58.8809C122.768 60.282 136.574 74.9424 136.574 92.8493V106.091H123.178V92.8493C123.178 82.2726 115.233 73.5584 104.998 72.2939C108.825 75.5746 111.935 79.8804 113.814 85.2628C116.275 92.2683 115.438 100.009 111.798 106.484L107.971 113.302L96.2834 106.758L99.564 100.914C103.135 94.5579 101.444 86.3563 95.6341 81.9138C93.3103 92.1316 84.2031 99.7523 73.2847 99.7523C62.3663 99.7523 53.2078 92.0974 50.9182 81.8454C45.0233 86.2709 43.3146 94.5238 46.9028 100.914L50.1834 106.758L38.4961 113.319L35.2155 107.475C28.6713 95.8223 31.4051 80.974 41.4521 72.311C31.2684 73.6096 23.3744 82.2897 23.3744 92.8493V106.091H9.9784V92.8493C9.9784 74.9424 23.8016 60.2649 41.3496 58.8638C43.4342 62.4178 46.0826 65.5959 49.1753 68.2615C49.8759 68.8595 50.8327 68.8937 51.5675 68.4323C51.7383 68.3298 51.9092 68.1931 52.0288 68.0223C52.0459 67.9881 52.0801 67.9881 52.0972 67.9539C52.7294 67.1167 52.6439 65.9206 51.8409 65.2371C44.1518 58.6587 39.4872 48.663 40.3244 37.5908C41.5205 21.9394 53.8913 9.0731 69.4914 7.33025C89.3804 5.10898 106.296 20.6921 106.296 40.1538C106.296 50.1666 101.785 59.1372 94.7285 65.203C93.9254 65.8864 93.8229 67.0825 94.4551 67.9197C94.4893 67.9539 94.5406 67.971 94.5576 68.0223C94.6602 68.159 94.7969 68.2615 94.9335 68.3469C95.6683 68.8424 96.6764 68.8253 97.394 68.2102C100.487 65.5447 103.118 62.3836 105.203 58.8467L105.22 58.8809ZM29.3206 38.1205C30.3629 38.1205 33.4897 38.2572 36.2578 39.5729C36.2749 38.2059 36.3603 36.8219 36.5312 35.4208C36.9754 31.8326 37.9835 28.4153 39.4017 25.22C36.702 23.836 33.2847 23.5455 31.0121 23.5455C29.5598 23.5455 28.5858 23.6481 28.5858 23.6481L28.9447 38.1205C28.9447 38.1205 29.0813 38.1205 29.3035 38.1205H29.3206ZM30.9609 55.754C34.5149 55.754 37.9835 56.6767 41.0591 58.4366C38.4107 53.7719 36.7362 48.4921 36.3261 42.8364C34.532 42.4947 33.0113 42.3409 31.3026 42.3409C31.2514 42.3409 31.183 42.3409 31.1147 42.3409C30.4825 42.3409 29.799 42.3751 29.0813 42.4093C23.0839 42.7339 17.2573 44.6476 12.268 47.9283L6.66357 51.6019L14.0279 62.7937L19.6324 59.1201C22.6567 57.138 26.1766 55.9761 29.8161 55.7882C30.192 55.7711 30.585 55.754 30.9609 55.754ZM117.249 38.1205C117.488 38.1205 117.608 38.1205 117.608 38.1205L117.966 23.6481C117.966 23.6481 116.993 23.5455 115.54 23.5455C113.268 23.5455 109.816 23.836 107.133 25.22C109.081 29.6284 110.209 34.481 110.277 39.5729C113.063 38.2401 116.189 38.1034 117.249 38.1034V38.1205ZM132.507 62.7937L139.872 51.6019L134.267 47.9283C129.261 44.6476 123.451 42.7339 117.454 42.4093C116.873 42.3751 116.326 42.358 115.779 42.358C115.643 42.358 115.523 42.358 115.403 42.358C114.908 42.358 114.429 42.3922 113.951 42.4264C113.814 42.4264 113.661 42.4264 113.507 42.4435C112.943 42.4947 112.379 42.5631 111.815 42.6485C111.764 42.6485 111.713 42.6485 111.661 42.6656C111.183 42.7339 110.687 42.8364 110.192 42.939C109.782 48.5263 108.107 53.789 105.476 58.4195C108.569 56.6596 112.02 55.7369 115.574 55.7369C115.95 55.7369 116.343 55.7369 116.719 55.7711C120.359 55.9761 123.878 57.1209 126.903 59.103L132.507 62.7766V62.7937Z" fill="#242424"/>
<path d="M88.2016 76.3265C88.2016 79.368 85.7411 81.8284 82.6997 81.8284C79.6582 81.8284 77.1978 79.368 77.1978 76.3265C77.1978 75.2671 77.5053 74.2761 78.035 73.4389C80.5638 73.0117 83.0243 72.3795 85.3994 71.5764C87.0568 72.5162 88.1845 74.2932 88.1845 76.3265H88.2016Z" fill="#AC6DFF"/>
<path d="M58.2998 76.3265C58.2998 79.368 60.7603 81.8284 63.8017 81.8284C66.8432 81.8284 69.3037 79.368 69.3037 76.3265C69.3037 75.2671 68.9961 74.2761 68.4664 73.4389C65.9376 73.0117 63.4771 72.3795 61.102 71.5764C59.4446 72.5162 58.3169 74.2932 58.3169 76.3265H58.2998Z" fill="#AC6DFF"/>
<path d="M63.7678 54.0453C58.8981 51.3798 55.0706 47.3132 52.7298 42.2897L52.576 41.9479C52.0463 40.8031 52.0463 39.4875 52.576 38.3597L52.8323 37.813C55.1048 33.0287 58.7443 29.1158 63.3235 26.5015L63.6994 26.2965L67.8857 33.6096L67.5098 33.8147C64.8442 35.3525 62.6571 37.5225 61.1193 40.1709C62.7084 42.9048 64.998 45.1261 67.8173 46.6639L63.7678 54.0624V54.0453Z" fill="#AC6DFF"/>
<path d="M82.6823 54.0112L78.4961 46.698L78.872 46.493C81.5375 44.9552 83.7246 42.7852 85.2624 40.1367C83.6734 37.4029 81.3838 35.1816 78.5644 33.6438L82.614 26.2452C87.4837 28.9108 91.3111 32.9774 93.652 38.0009L93.8229 38.3597C94.3526 39.5045 94.3526 40.8202 93.8229 41.9479L93.5666 42.4776C91.294 47.2448 87.6717 51.1577 83.0753 53.789L82.6994 53.9941L82.6823 54.0112Z" fill="#AC6DFF"/>
</g>
<defs>
<clipPath id="clip0_118_212">
<rect width="146.536" height="120" fill="white"/>
</clipPath>
</defs>
</svg>
